<svg width="332" height="271" viewBox="0 0 332 271" fill="none" xmlns="http://www.w3.org/2000/svg">
<path d="M193.314 271H156L226.059 89H263.372L331.908 271H294.594L243.573 139.259L193.314 271Z" fill="#F77B0B"/>
<path d="M83.5 179.5C71.3333 179.5 60.1667 177.333 50 173C39.8333 168.667 31 162.5 23.5 154.5C16 146.333 10.1667 136.75 6 125.75C2 114.75 0 102.667 0 89.5C0 77 2.16667 65.4167 6.5 54.75C11 43.9167 17.1667 34.4167 25 26.25C32.8333 18.0833 41.9167 11.75 52.25 7.25C62.5833 2.75 73.75 0.5 85.75 0.5C94.25 0.5 102.5 1.83333 110.5 4.49999C118.667 7 126 10.5833 132.5 15.25C139.167 19.75 144.583 24.9167 148.75 30.75L130.75 49.5C125.917 44.6667 121 40.6667 116 37.5C111.167 34.1667 106.167 31.6667 101 30C96 28.3333 90.9167 27.5 85.75 27.5C77.5833 27.5 69.9167 29.0833 62.75 32.25C55.75 35.25 49.5833 39.5 44.25 45C39.0833 50.5 35 57.0833 32 64.75C29 72.25 27.5 80.5 27.5 89.5C27.5 99 28.9167 107.667 31.75 115.5C34.75 123.167 38.9167 129.75 44.25 135.25C49.5833 140.75 55.9167 145 63.25 148C70.75 150.833 79 152.25 88 152.25C93.5 152.25 98.9167 151.5 104.25 150C109.583 148.5 114.583 146.333 119.25 143.5C123.917 140.667 128.167 137.333 132 133.5L145.5 155.5C141.667 160 136.417 164.083 129.75 167.75C123.25 171.417 115.917 174.333 107.75 176.5C99.75 178.5 91.6667 179.5 83.5 179.5Z" fill="#1A1B1A"/>
</svg>
