<svg width="1045" height="273" viewBox="0 0 1045 273" fill="none" xmlns="http://www.w3.org/2000/svg">
<path d="M524.314 271H487L557.059 89H594.372L662.908 271H625.594L574.573 139.259L524.314 271Z" fill="#F77B0B"/>
<path d="M83.5 179.5C71.3333 179.5 60.1667 177.333 50 173C39.8333 168.667 31 162.5 23.5 154.5C16 146.333 10.1667 136.75 6 125.75C2 114.75 0 102.667 0 89.5C0 77 2.16667 65.4167 6.5 54.75C11 43.9167 17.1667 34.4167 25 26.25C32.8333 18.0833 41.9167 11.75 52.25 7.25C62.5833 2.75 73.75 0.5 85.75 0.5C94.25 0.5 102.5 1.83333 110.5 4.49999C118.667 7 126 10.5833 132.5 15.25C139.167 19.75 144.583 24.9167 148.75 30.75L130.75 49.5C125.917 44.6667 121 40.6667 116 37.5C111.167 34.1667 106.167 31.6667 101 30C96 28.3333 90.9167 27.5 85.75 27.5C77.5833 27.5 69.9167 29.0833 62.75 32.25C55.75 35.25 49.5833 39.5 44.25 45C39.0833 50.5 35 57.0833 32 64.75C29 72.25 27.5 80.5 27.5 89.5C27.5 99 28.9167 107.667 31.75 115.5C34.75 123.167 38.9167 129.75 44.25 135.25C49.5833 140.75 55.9167 145 63.25 148C70.75 150.833 79 152.25 88 152.25C93.5 152.25 98.9167 151.5 104.25 150C109.583 148.5 114.583 146.333 119.25 143.5C123.917 140.667 128.167 137.333 132 133.5L145.5 155.5C141.667 160 136.417 164.083 129.75 167.75C123.25 171.417 115.917 174.333 107.75 176.5C99.75 178.5 91.6667 179.5 83.5 179.5Z" fill="#1A1B1A"/>
<path d="M165.25 168V57H176.5V168H165.25Z" fill="#1A1B1A"/>
<path d="M231.827 169.5C224.027 169.5 217.077 167.75 210.977 164.25C204.977 160.75 200.227 155.9 196.727 149.7C193.327 143.5 191.627 136.45 191.627 128.55C191.627 120.75 193.327 113.8 196.727 107.7C200.227 101.6 204.977 96.8 210.977 93.3C217.077 89.8 224.027 88.05 231.827 88.05C239.527 88.05 246.377 89.8 252.377 93.3C258.477 96.8 263.227 101.6 266.627 107.7C270.127 113.8 271.877 120.75 271.877 128.55C271.877 136.45 270.127 143.5 266.627 149.7C263.227 155.9 258.477 160.75 252.377 164.25C246.377 167.75 239.527 169.5 231.827 169.5ZM231.827 158.85C237.327 158.85 242.227 157.55 246.527 154.95C250.827 152.25 254.177 148.65 256.577 144.15C258.977 139.55 260.177 134.35 260.177 128.55C260.177 122.75 258.977 117.6 256.577 113.1C254.177 108.6 250.827 105.1 246.527 102.6C242.227 100 237.327 98.7 231.827 98.7C226.327 98.7 221.377 100 216.977 102.6C212.677 105.1 209.277 108.65 206.777 113.25C204.377 117.75 203.227 122.85 203.327 128.55C203.227 134.35 204.377 139.55 206.777 144.15C209.277 148.65 212.677 152.25 216.977 154.95C221.377 157.55 226.327 158.85 231.827 158.85Z" fill="#1A1B1A"/>
<path d="M316.041 169.5C310.041 169.5 304.941 168.3 300.741 165.9C296.641 163.4 293.491 159.8 291.291 155.1C289.191 150.4 288.141 144.55 288.141 137.55V89.7H299.541V135.3C299.541 140.6 300.241 145.05 301.641 148.65C303.141 152.15 305.341 154.8 308.241 156.6C311.241 158.4 314.891 159.3 319.191 159.3C322.491 159.3 325.541 158.75 328.341 157.65C331.141 156.45 333.591 154.85 335.691 152.85C337.791 150.85 339.441 148.5 340.641 145.8C341.841 143.1 342.441 140.25 342.441 137.25V89.7H353.691V168H342.591L342.141 151.5L343.941 150.6C342.741 154.1 340.741 157.3 337.941 160.2C335.141 163 331.791 165.25 327.891 166.95C324.091 168.65 320.141 169.5 316.041 169.5Z" fill="#1A1B1A"/>
<path d="M407.395 169.5C400.295 169.5 393.895 167.75 388.195 164.25C382.595 160.75 378.145 155.95 374.845 149.85C371.645 143.65 370.045 136.65 370.045 128.85C370.045 120.95 371.695 113.95 374.995 107.85C378.295 101.65 382.745 96.8 388.345 93.3C393.945 89.8 400.245 88.05 407.245 88.05C411.145 88.05 414.895 88.65 418.495 89.85C422.195 91.05 425.495 92.75 428.395 94.95C431.295 97.05 433.695 99.5 435.595 102.3C437.495 105 438.645 107.85 439.045 110.85L435.595 109.65V57H446.845V168H435.745L435.445 148.5L438.295 147.45C437.895 150.25 436.745 153 434.845 155.7C433.045 158.3 430.745 160.65 427.945 162.75C425.145 164.85 421.945 166.5 418.345 167.7C414.845 168.9 411.195 169.5 407.395 169.5ZM409.045 159.15C414.245 159.15 418.895 157.85 422.995 155.25C427.095 152.65 430.295 149.05 432.595 144.45C434.995 139.85 436.195 134.6 436.195 128.7C436.195 122.8 434.995 117.6 432.595 113.1C430.295 108.5 427.095 104.9 422.995 102.3C418.895 99.6 414.245 98.25 409.045 98.25C403.645 98.25 398.895 99.6 394.795 102.3C390.795 104.9 387.595 108.5 385.195 113.1C382.895 117.6 381.745 122.8 381.745 128.7C381.745 134.5 382.895 139.7 385.195 144.3C387.495 148.9 390.695 152.55 394.795 155.25C398.895 157.85 403.645 159.15 409.045 159.15Z" fill="#1A1B1A"/>
<path d="M713.05 272.5C706.45 272.5 700.5 271.35 695.2 269.05C689.9 266.75 685.5 263.35 682 258.85L692.5 249.85C695.5 253.35 698.75 255.9 702.25 257.5C705.85 259 709.9 259.75 714.4 259.75C716.2 259.75 717.85 259.55 719.35 259.15C720.95 258.65 722.3 257.95 723.4 257.05C724.6 256.15 725.5 255.1 726.1 253.9C726.7 252.6 727 251.2 727 249.7C727 247.1 726.05 245 724.15 243.4C723.15 242.7 721.55 241.95 719.35 241.15C717.25 240.25 714.5 239.35 711.1 238.45C705.3 236.95 700.55 235.25 696.85 233.35C693.15 231.45 690.3 229.3 688.3 226.9C686.8 225 685.7 222.95 685 220.75C684.3 218.45 683.95 215.95 683.95 213.25C683.95 209.95 684.65 206.95 686.05 204.25C687.55 201.45 689.55 199.05 692.05 197.05C694.65 194.95 697.65 193.35 701.05 192.25C704.55 191.15 708.25 190.6 712.15 190.6C715.85 190.6 719.5 191.1 723.1 192.1C726.8 193.1 730.2 194.55 733.3 196.45C736.4 198.35 739 200.6 741.1 203.2L732.25 212.95C730.35 211.05 728.25 209.4 725.95 208C723.75 206.5 721.5 205.35 719.2 204.55C716.9 203.75 714.8 203.35 712.9 203.35C710.8 203.35 708.9 203.55 707.2 203.95C705.5 204.35 704.05 204.95 702.85 205.75C701.75 206.55 700.9 207.55 700.3 208.75C699.7 209.95 699.4 211.3 699.4 212.8C699.5 214.1 699.8 215.35 700.3 216.55C700.9 217.65 701.7 218.6 702.7 219.4C703.8 220.2 705.45 221.05 707.65 221.95C709.85 222.85 712.65 223.7 716.05 224.5C721.05 225.8 725.15 227.25 728.35 228.85C731.65 230.35 734.25 232.1 736.15 234.1C738.15 236 739.55 238.2 740.35 240.7C741.15 243.2 741.55 246 741.55 249.1C741.55 253.6 740.25 257.65 737.65 261.25C735.15 264.75 731.75 267.5 727.45 269.5C723.15 271.5 718.35 272.5 713.05 272.5Z" fill="#F77B0B"/>
<path d="M784.827 272.5C778.227 272.5 772.277 271.35 766.977 269.05C761.677 266.75 757.277 263.35 753.777 258.85L764.277 249.85C767.277 253.35 770.527 255.9 774.027 257.5C777.627 259 781.677 259.75 786.177 259.75C787.977 259.75 789.627 259.55 791.127 259.15C792.727 258.65 794.077 257.95 795.177 257.05C796.377 256.15 797.277 255.1 797.877 253.9C798.477 252.6 798.777 251.2 798.777 249.7C798.777 247.1 797.827 245 795.927 243.4C794.927 242.7 793.327 241.95 791.127 241.15C789.027 240.25 786.277 239.35 782.877 238.45C777.077 236.95 772.327 235.25 768.627 233.35C764.927 231.45 762.077 229.3 760.077 226.9C758.577 225 757.477 222.95 756.777 220.75C756.077 218.45 755.727 215.95 755.727 213.25C755.727 209.95 756.427 206.95 757.827 204.25C759.327 201.45 761.327 199.05 763.827 197.05C766.427 194.95 769.427 193.35 772.827 192.25C776.327 191.15 780.027 190.6 783.927 190.6C787.627 190.6 791.277 191.1 794.877 192.1C798.577 193.1 801.977 194.55 805.077 196.45C808.177 198.35 810.777 200.6 812.877 203.2L804.027 212.95C802.127 211.05 800.027 209.4 797.727 208C795.527 206.5 793.277 205.35 790.977 204.55C788.677 203.75 786.577 203.35 784.677 203.35C782.577 203.35 780.677 203.55 778.977 203.95C777.277 204.35 775.827 204.95 774.627 205.75C773.527 206.55 772.677 207.55 772.077 208.75C771.477 209.95 771.177 211.3 771.177 212.8C771.277 214.1 771.577 215.35 772.077 216.55C772.677 217.65 773.477 218.6 774.477 219.4C775.577 220.2 777.227 221.05 779.427 221.95C781.627 222.85 784.427 223.7 787.827 224.5C792.827 225.8 796.927 227.25 800.127 228.85C803.427 230.35 806.027 232.1 807.927 234.1C809.927 236 811.327 238.2 812.127 240.7C812.927 243.2 813.327 246 813.327 249.1C813.327 253.6 812.027 257.65 809.427 261.25C806.927 264.75 803.527 267.5 799.227 269.5C794.927 271.5 790.127 272.5 784.827 272.5Z" fill="#F77B0B"/>
<path d="M867.105 272.5C859.005 272.5 851.805 270.8 845.505 267.4C839.305 263.9 834.405 259.15 830.805 253.15C827.305 247.15 825.555 240.25 825.555 232.45C825.555 226.25 826.555 220.6 828.555 215.5C830.555 210.4 833.305 206 836.805 202.3C840.405 198.5 844.655 195.6 849.555 193.6C854.555 191.5 859.955 190.45 865.755 190.45C870.855 190.45 875.605 191.45 880.005 193.45C884.405 195.35 888.205 198 891.405 201.4C894.705 204.8 897.205 208.85 898.905 213.55C900.705 218.15 901.555 223.2 901.455 228.7L901.305 235.3H836.955L833.505 223H887.955L885.705 225.55V221.95C885.405 218.65 884.305 215.7 882.405 213.1C880.505 210.5 878.105 208.45 875.205 206.95C872.305 205.45 869.155 204.7 865.755 204.7C860.355 204.7 855.805 205.75 852.105 207.85C848.405 209.85 845.605 212.85 843.705 216.85C841.805 220.75 840.855 225.6 840.855 231.4C840.855 236.9 842.005 241.7 844.305 245.8C846.605 249.8 849.855 252.9 854.055 255.1C858.255 257.3 863.105 258.4 868.605 258.4C872.505 258.4 876.105 257.75 879.405 256.45C882.805 255.15 886.455 252.8 890.355 249.4L898.155 260.35C895.755 262.75 892.805 264.85 889.305 266.65C885.905 268.45 882.255 269.9 878.355 271C874.555 272 870.805 272.5 867.105 272.5Z" fill="#F77B0B"/>
<path d="M944.495 272.5C937.895 272.5 931.945 271.35 926.645 269.05C921.345 266.75 916.945 263.35 913.445 258.85L923.945 249.85C926.945 253.35 930.195 255.9 933.695 257.5C937.295 259 941.345 259.75 945.845 259.75C947.645 259.75 949.295 259.55 950.795 259.15C952.395 258.65 953.745 257.95 954.845 257.05C956.045 256.15 956.945 255.1 957.545 253.9C958.145 252.6 958.445 251.2 958.445 249.7C958.445 247.1 957.495 245 955.595 243.4C954.595 242.7 952.995 241.95 950.795 241.15C948.695 240.25 945.945 239.35 942.545 238.45C936.745 236.95 931.995 235.25 928.295 233.35C924.595 231.45 921.745 229.3 919.745 226.9C918.245 225 917.145 222.95 916.445 220.75C915.745 218.45 915.395 215.95 915.395 213.25C915.395 209.95 916.095 206.95 917.495 204.25C918.995 201.45 920.995 199.05 923.495 197.05C926.095 194.95 929.095 193.35 932.495 192.25C935.995 191.15 939.695 190.6 943.595 190.6C947.295 190.6 950.945 191.1 954.545 192.1C958.245 193.1 961.645 194.55 964.745 196.45C967.845 198.35 970.445 200.6 972.545 203.2L963.695 212.95C961.795 211.05 959.695 209.4 957.395 208C955.195 206.5 952.945 205.35 950.645 204.55C948.345 203.75 946.245 203.35 944.345 203.35C942.245 203.35 940.345 203.55 938.645 203.95C936.945 204.35 935.495 204.95 934.295 205.75C933.195 206.55 932.345 207.55 931.745 208.75C931.145 209.95 930.845 211.3 930.845 212.8C930.945 214.1 931.245 215.35 931.745 216.55C932.345 217.65 933.145 218.6 934.145 219.4C935.245 220.2 936.895 221.05 939.095 221.95C941.295 222.85 944.095 223.7 947.495 224.5C952.495 225.8 956.595 227.25 959.795 228.85C963.095 230.35 965.695 232.1 967.595 234.1C969.595 236 970.995 238.2 971.795 240.7C972.595 243.2 972.995 246 972.995 249.1C972.995 253.6 971.695 257.65 969.095 261.25C966.595 264.75 963.195 267.5 958.895 269.5C954.595 271.5 949.795 272.5 944.495 272.5Z" fill="#F77B0B"/>
<path d="M1016.27 272.5C1009.67 272.5 1003.72 271.35 998.423 269.05C993.123 266.75 988.723 263.35 985.223 258.85L995.723 249.85C998.723 253.35 1001.97 255.9 1005.47 257.5C1009.07 259 1013.12 259.75 1017.62 259.75C1019.42 259.75 1021.07 259.55 1022.57 259.15C1024.17 258.65 1025.52 257.95 1026.62 257.05C1027.82 256.15 1028.72 255.1 1029.32 253.9C1029.92 252.6 1030.22 251.2 1030.22 249.7C1030.22 247.1 1029.27 245 1027.37 243.4C1026.37 242.7 1024.77 241.95 1022.57 241.15C1020.47 240.25 1017.72 239.35 1014.32 238.45C1008.52 236.95 1003.77 235.25 1000.07 233.35C996.373 231.45 993.523 229.3 991.523 226.9C990.023 225 988.923 222.95 988.223 220.75C987.523 218.45 987.173 215.95 987.173 213.25C987.173 209.95 987.873 206.95 989.273 204.25C990.773 201.45 992.773 199.05 995.273 197.05C997.873 194.95 1000.87 193.35 1004.27 192.25C1007.77 191.15 1011.47 190.6 1015.37 190.6C1019.07 190.6 1022.72 191.1 1026.32 192.1C1030.02 193.1 1033.42 194.55 1036.52 196.45C1039.62 198.35 1042.22 200.6 1044.32 203.2L1035.47 212.95C1033.57 211.05 1031.47 209.4 1029.17 208C1026.97 206.5 1024.72 205.35 1022.42 204.55C1020.12 203.75 1018.02 203.35 1016.12 203.35C1014.02 203.35 1012.12 203.55 1010.42 203.95C1008.72 204.35 1007.27 204.95 1006.07 205.75C1004.97 206.55 1004.12 207.55 1003.52 208.75C1002.92 209.95 1002.62 211.3 1002.62 212.8C1002.72 214.1 1003.02 215.35 1003.52 216.55C1004.12 217.65 1004.92 218.6 1005.92 219.4C1007.02 220.2 1008.67 221.05 1010.87 221.95C1013.07 222.85 1015.87 223.7 1019.27 224.5C1024.27 225.8 1028.37 227.25 1031.57 228.85C1034.87 230.35 1037.47 232.1 1039.37 234.1C1041.37 236 1042.77 238.2 1043.57 240.7C1044.37 243.2 1044.77 246 1044.77 249.1C1044.77 253.6 1043.47 257.65 1040.87 261.25C1038.37 264.75 1034.97 267.5 1030.67 269.5C1026.37 271.5 1021.57 272.5 1016.27 272.5Z" fill="#F77B0B"/>
</svg>
