<svg width="101" height="30" viewBox="0 0 101 30" fill="none" xmlns="http://www.w3.org/2000/svg">
<path d="M24.8633 7.82984L20.4531 5.17728L23.7767 0L19.6221 4.66595L18.4077 3.9309L18.7912 2.94019L15.883 6.935L15.0521 12.2401L14.7005 14.6051L12.5593 15.404L6.55109 15.6277L5.65625 17.0339L6.93459 19.2071L7.92531 28.7627L9.10777 24.1287L12.2717 28.1235L10.0985 21.8277L13.9974 19.1112L17.8644 18.7916L21.7314 23.937L24.0963 27.1008L21.4118 21.1566L21.0922 17.9287L23.0097 16.171L26.5252 19.7504L24.2881 15.0205L21.9231 15.1164L18.8551 8.56489L24.5757 8.66076L24.8633 7.82984Z" fill="#A80C35"/>
<path d="M2.84431 14.3813L1.11855 15.2123L0 13.6463L0.22371 15.6597L2.01339 16.6504L4.34636 15.6916L6.5515 15.6277L4.72986 14.1257L2.84431 14.3813Z" fill="#A80C35"/>
<path d="M52.0758 22.4644L46.9012 14.4899L44.1014 17.9647V22.4644H41.8516V4.96562H44.1014V14.4899L51.8758 4.96562H54.6006L48.4261 12.6151L54.7006 22.4644H52.0758ZM59.9003 20.3145H67.2997L67.1497 22.4644H57.6504V4.96562H59.9003V20.3145ZM80.5238 20.3145L80.6738 22.4644H70.0245V4.96562H80.1738L80.3488 7.11546H72.2744V11.3902H77.749V13.54H72.2744V20.3145H80.5238ZM83.9235 22.4644V4.96562H86.1734V22.4644H83.9235ZM89.4231 20.6395C90.5231 21.6644 92.7979 22.7143 95.0727 22.7143C98.5725 22.7143 100.797 20.9145 100.797 18.0897C100.797 15.7898 99.6974 14.4399 95.8977 12.2901C92.9979 10.6152 92.2979 10.0653 92.2979 8.96533C92.2979 7.79042 93.3979 6.86548 95.2477 6.86548C96.3226 6.86548 97.7475 7.34045 98.5725 7.86541L99.7724 6.06554C98.5975 5.2906 96.7476 4.71564 95.2727 4.71564C92.048 4.71564 89.8981 6.5655 89.8981 8.99033C89.8981 11.1402 90.973 12.2151 94.2728 14.015C97.1976 15.6149 98.3975 16.7898 98.3975 18.0647C98.3975 19.5646 97.0976 20.4645 95.0727 20.4645C93.3229 20.4645 91.573 19.6396 90.698 18.8396L89.4231 20.6395Z" fill="#A80C35"/>
<path d="M44.8723 26.2226H43.6374V29.9395H43.0926V26.2226H41.8516L41.8879 25.702H44.836L44.8723 26.2226ZM50.1069 29.4189L50.1432 29.9395H47.5643V25.702H50.0221L50.0645 26.2226H48.1092V27.2577H49.4349V27.7783H48.1092V29.4189H50.1069ZM52.7928 27.8207C52.7928 26.5979 53.7554 25.6414 54.9661 25.6414C55.4746 25.6414 55.9589 25.8109 56.3887 26.1378L56.1163 26.5616C55.7591 26.2892 55.3898 26.156 54.9661 26.156C54.052 26.156 53.3377 26.8885 53.3377 27.8207C53.3377 28.753 54.0581 29.4855 54.9661 29.4855C55.4262 29.4855 55.8196 29.3402 56.1163 29.0557L56.3947 29.4733C56.0255 29.8063 55.5049 30 54.9661 30C53.7554 30 52.7928 29.0375 52.7928 27.8207ZM61.8593 25.702H62.4042V29.9395H61.8593V27.9902H59.7587V29.9395H59.2139V25.702H59.7587V27.4696H61.8593V25.702ZM68.3651 25.702H68.91V30H68.8434L65.9982 26.9793V29.9395H65.4594V25.6414H65.5199L68.3651 28.6622V25.702ZM73.969 30C72.7582 30 71.7957 29.0314 71.7957 27.8207C71.7957 26.61 72.7582 25.6414 73.969 25.6414C75.1797 25.6414 76.1422 26.61 76.1422 27.8207C76.1422 29.0314 75.1797 30 73.969 30ZM73.969 29.4794C74.8891 29.4794 75.5792 28.759 75.5792 27.8207C75.5792 26.8824 74.8891 26.162 73.969 26.162C73.0428 26.162 72.3526 26.8824 72.3526 27.8207C72.3526 28.759 73.0428 29.4794 73.969 29.4794ZM79.5788 29.4189H81.3707L81.3344 29.9395H79.034V25.702H79.5788V29.4189ZM86.0665 30C84.8558 30 83.8932 29.0314 83.8932 27.8207C83.8932 26.61 84.8558 25.6414 86.0665 25.6414C87.2772 25.6414 88.2397 26.61 88.2397 27.8207C88.2397 29.0314 87.2772 30 86.0665 30ZM86.0665 29.4794C86.9866 29.4794 87.6767 28.759 87.6767 27.8207C87.6767 26.8824 86.9866 26.162 86.0665 26.162C85.1403 26.162 84.4502 26.8824 84.4502 27.8207C84.4502 28.759 85.1403 29.4794 86.0665 29.4794ZM94.6426 27.4817V29.5581C94.3157 29.8063 93.8678 30 93.1595 30C91.8277 30 90.962 29.0314 90.962 27.8207C90.962 26.61 91.8761 25.6414 93.1474 25.6414C93.7346 25.6414 94.2189 25.8533 94.6002 26.156L94.3157 26.5676C93.9828 26.3013 93.5711 26.162 93.1474 26.162C92.2393 26.162 91.5311 26.8521 91.5311 27.8207C91.5311 28.7893 92.1849 29.4733 93.1595 29.4733C93.5288 29.4733 93.8436 29.3947 94.0978 29.2736V28.0084H93.2806L93.3169 27.4817H94.6426ZM100.797 25.702L99.3021 28.0568V29.9395H98.7573V28.0629L97.256 25.702H97.8734L99.0297 27.5241L100.18 25.702H100.797Z" fill="#A80C35"/>
</svg>
